<mxfile host="65bd71144e">
    <diagram id="R_PuKiIMnyWnv1Evqzq0" name="Page-1">
        <mxGraphModel dx="505" dy="594" grid="1" gridSize="10" guides="1" tooltips="1" connect="1" arrows="1" fold="1" page="1" pageScale="1" pageWidth="850" pageHeight="1100" math="0" shadow="0">
            <root>
                <mxCell id="0"/>
                <mxCell id="1" parent="0"/>
                <mxCell id="35" style="edgeStyle=none;html=1;entryX=0.642;entryY=0;entryDx=0;entryDy=0;entryPerimeter=0;fontSize=14;exitX=1;exitY=0.5;exitDx=0;exitDy=0;startArrow=classic;startFill=1;" parent="1" edge="1" source="62">
                    <mxGeometry relative="1" as="geometry">
                        <mxPoint x="481" y="270" as="sourcePoint"/>
                        <mxPoint x="480.99999999999994" y="310" as="targetPoint"/>
                        <Array as="points">
                            <mxPoint x="481" y="256"/>
                        </Array>
                    </mxGeometry>
                </mxCell>
                <mxCell id="16" style="edgeStyle=none;html=1;startArrow=classic;startFill=1;fontSize=14;entryX=0.25;entryY=0;entryDx=0;entryDy=0;" parent="1" edge="1" target="49">
                    <mxGeometry relative="1" as="geometry">
                        <mxPoint x="600" y="330" as="sourcePoint"/>
                        <mxPoint x="575" y="322" as="targetPoint"/>
                    </mxGeometry>
                </mxCell>
                <mxCell id="56" style="edgeStyle=none;html=1;exitX=0.5;exitY=1;exitDx=0;exitDy=0;entryX=-0.009;entryY=0.338;entryDx=0;entryDy=0;entryPerimeter=0;" parent="1" source="3" target="49" edge="1">
                    <mxGeometry relative="1" as="geometry">
                        <Array as="points">
                            <mxPoint x="480" y="381"/>
                        </Array>
                        <mxPoint x="570" y="387" as="targetPoint"/>
                    </mxGeometry>
                </mxCell>
                <mxCell id="3" value="Multi-NIC CNI" style="rounded=0;whiteSpace=wrap;html=1;fontSize=14;" parent="1" vertex="1">
                    <mxGeometry x="420" y="310" width="120" height="40" as="geometry"/>
                </mxCell>
                <mxCell id="4" value="IPAM Plugin" style="rounded=0;whiteSpace=wrap;html=1;fontSize=14;" parent="1" vertex="1">
                    <mxGeometry x="580" y="293" width="110" height="40" as="geometry"/>
                </mxCell>
                <mxCell id="15" style="edgeStyle=none;html=1;exitX=1;exitY=0.5;exitDx=0;exitDy=0;entryX=0;entryY=0.5;entryDx=0;entryDy=0;fontSize=14;" parent="1" source="9" target="3" edge="1">
                    <mxGeometry relative="1" as="geometry"/>
                </mxCell>
                <mxCell id="60" value="" style="edgeStyle=none;html=1;" edge="1" parent="1" source="9" target="3">
                    <mxGeometry relative="1" as="geometry"/>
                </mxCell>
                <mxCell id="9" value="Multus CNI" style="rounded=0;whiteSpace=wrap;html=1;fontSize=14;" parent="1" vertex="1">
                    <mxGeometry x="270" y="310" width="120" height="40" as="geometry"/>
                </mxCell>
                <mxCell id="11" value="Kubelet" style="rounded=0;whiteSpace=wrap;html=1;fontSize=14;" parent="1" vertex="1">
                    <mxGeometry x="150" y="310" width="90" height="40" as="geometry"/>
                </mxCell>
                <mxCell id="17" value="" style="rounded=0;whiteSpace=wrap;html=1;fontSize=14;" parent="1" vertex="1">
                    <mxGeometry x="450" y="160" width="246" height="60" as="geometry"/>
                </mxCell>
                <mxCell id="19" value="Pod" style="text;html=1;align=center;verticalAlign=middle;resizable=0;points=[];autosize=1;strokeColor=none;fillColor=none;fontSize=14;" parent="1" vertex="1">
                    <mxGeometry x="450" y="157" width="50" height="30" as="geometry"/>
                </mxCell>
                <mxCell id="64" style="edgeStyle=none;html=1;exitX=1;exitY=0.75;exitDx=0;exitDy=0;entryX=0;entryY=0.5;entryDx=0;entryDy=0;" edge="1" parent="1" source="26" target="62">
                    <mxGeometry relative="1" as="geometry"/>
                </mxCell>
                <mxCell id="26" value="" style="rounded=0;whiteSpace=wrap;html=1;fontSize=14;" parent="1" vertex="1">
                    <mxGeometry x="150" y="173" width="140" height="110" as="geometry"/>
                </mxCell>
                <mxCell id="27" value="Node" style="text;html=1;align=center;verticalAlign=middle;resizable=0;points=[];autosize=1;strokeColor=none;fillColor=none;fontSize=14;" parent="1" vertex="1">
                    <mxGeometry x="140" y="170" width="60" height="30" as="geometry"/>
                </mxCell>
                <mxCell id="28" value="ens4" style="rounded=0;whiteSpace=wrap;html=1;fontSize=14;" parent="1" vertex="1">
                    <mxGeometry x="180" y="193" width="85" height="20" as="geometry"/>
                </mxCell>
                <mxCell id="29" value="ens5" style="rounded=0;whiteSpace=wrap;html=1;fontSize=14;" parent="1" vertex="1">
                    <mxGeometry x="180" y="213" width="85" height="20" as="geometry"/>
                </mxCell>
                <mxCell id="30" value="ens6" style="rounded=0;whiteSpace=wrap;html=1;fontSize=14;" parent="1" vertex="1">
                    <mxGeometry x="180" y="233" width="85" height="20" as="geometry"/>
                </mxCell>
                <mxCell id="31" value="ens7" style="rounded=0;whiteSpace=wrap;html=1;fontSize=14;" parent="1" vertex="1">
                    <mxGeometry x="180" y="253" width="85" height="20" as="geometry"/>
                </mxCell>
                <mxCell id="37" value="ens4" style="text;html=1;align=center;verticalAlign=middle;resizable=0;points=[];autosize=1;strokeColor=none;fillColor=none;fontSize=14;" parent="1" vertex="1">
                    <mxGeometry x="592.5" y="333" width="50" height="30" as="geometry"/>
                </mxCell>
                <mxCell id="38" value="ens5" style="text;html=1;align=center;verticalAlign=middle;resizable=0;points=[];autosize=1;strokeColor=none;fillColor=none;fontSize=14;" parent="1" vertex="1">
                    <mxGeometry x="653" y="333" width="50" height="30" as="geometry"/>
                </mxCell>
                <mxCell id="41" value="net1-0" style="rounded=0;whiteSpace=wrap;html=1;fontSize=14;" parent="1" vertex="1">
                    <mxGeometry x="471" y="190" width="85" height="20" as="geometry"/>
                </mxCell>
                <mxCell id="42" value="net1-1" style="rounded=0;whiteSpace=wrap;html=1;fontSize=14;" parent="1" vertex="1">
                    <mxGeometry x="575" y="190" width="85" height="20" as="geometry"/>
                </mxCell>
                <mxCell id="43" value="net1-0" style="text;html=1;align=center;verticalAlign=middle;resizable=0;points=[];autosize=1;strokeColor=none;fillColor=none;fontSize=14;rotation=270;" parent="1" vertex="1">
                    <mxGeometry x="680" y="315" width="60" height="30" as="geometry"/>
                </mxCell>
                <mxCell id="53" style="edgeStyle=none;html=1;exitX=1;exitY=0.25;exitDx=0;exitDy=0;entryX=1;entryY=0.5;entryDx=0;entryDy=0;" parent="1" source="49" target="17" edge="1">
                    <mxGeometry relative="1" as="geometry">
                        <Array as="points">
                            <mxPoint x="720" y="377"/>
                            <mxPoint x="720" y="190"/>
                        </Array>
                    </mxGeometry>
                </mxCell>
                <mxCell id="49" value="Main CNI Plugin" style="rounded=0;whiteSpace=wrap;html=1;fontSize=14;" parent="1" vertex="1">
                    <mxGeometry x="570" y="367" width="120" height="40" as="geometry"/>
                </mxCell>
                <mxCell id="54" style="edgeStyle=none;html=1;exitX=1;exitY=0.5;exitDx=0;exitDy=0;" parent="1" source="49" edge="1">
                    <mxGeometry relative="1" as="geometry">
                        <mxPoint x="700" y="387" as="sourcePoint"/>
                        <mxPoint x="700" y="170" as="targetPoint"/>
                        <Array as="points">
                            <mxPoint x="740" y="387"/>
                            <mxPoint x="740" y="170"/>
                        </Array>
                    </mxGeometry>
                </mxCell>
                <mxCell id="55" value="net1-1" style="text;html=1;align=center;verticalAlign=middle;resizable=0;points=[];autosize=1;strokeColor=none;fillColor=none;fontSize=14;rotation=270;" parent="1" vertex="1">
                    <mxGeometry x="703" y="315" width="60" height="30" as="geometry"/>
                </mxCell>
                <mxCell id="57" style="edgeStyle=none;html=1;exitX=0.375;exitY=0.996;exitDx=0;exitDy=0;entryX=0;entryY=1;entryDx=0;entryDy=0;exitPerimeter=0;" parent="1" source="3" target="49" edge="1">
                    <mxGeometry relative="1" as="geometry">
                        <mxPoint x="520" y="360" as="sourcePoint"/>
                        <mxPoint x="580" y="397" as="targetPoint"/>
                        <Array as="points">
                            <mxPoint x="465" y="407"/>
                        </Array>
                    </mxGeometry>
                </mxCell>
                <mxCell id="58" value="net1-0, ens4" style="text;html=1;align=center;verticalAlign=middle;resizable=0;points=[];autosize=1;strokeColor=none;fillColor=none;fontSize=14;" parent="1" vertex="1">
                    <mxGeometry x="474" y="352" width="100" height="30" as="geometry"/>
                </mxCell>
                <mxCell id="59" value="net1-1, ens5" style="text;html=1;align=center;verticalAlign=middle;resizable=0;points=[];autosize=1;strokeColor=none;fillColor=none;fontSize=14;" parent="1" vertex="1">
                    <mxGeometry x="459" y="380" width="100" height="30" as="geometry"/>
                </mxCell>
                <mxCell id="61" value="" style="edgeStyle=none;html=1;" edge="1" parent="1">
                    <mxGeometry relative="1" as="geometry">
                        <mxPoint x="240" y="329.5" as="sourcePoint"/>
                        <mxPoint x="270" y="329.5" as="targetPoint"/>
                    </mxGeometry>
                </mxCell>
                <mxCell id="62" value="Multi-NIC Daemon" style="rounded=0;whiteSpace=wrap;html=1;fontSize=14;" vertex="1" parent="1">
                    <mxGeometry x="320" y="236" width="120" height="40" as="geometry"/>
                </mxCell>
                <mxCell id="65" value="2 NICs" style="text;html=1;align=center;verticalAlign=middle;resizable=0;points=[];autosize=1;strokeColor=none;fillColor=none;fontSize=13;" vertex="1" parent="1">
                    <mxGeometry x="425" y="273" width="60" height="30" as="geometry"/>
                </mxCell>
                <mxCell id="66" value="ens4,&lt;br style=&quot;font-size: 13px;&quot;&gt;ens5" style="text;html=1;align=center;verticalAlign=middle;resizable=0;points=[];autosize=1;strokeColor=none;fillColor=none;fontSize=13;" vertex="1" parent="1">
                    <mxGeometry x="473" y="253" width="60" height="40" as="geometry"/>
                </mxCell>
                <mxCell id="71" style="edgeStyle=none;html=1;startArrow=classic;startFill=1;fontSize=14;entryX=0.25;entryY=0;entryDx=0;entryDy=0;" edge="1" parent="1">
                    <mxGeometry relative="1" as="geometry">
                        <mxPoint x="660" y="333" as="sourcePoint"/>
                        <mxPoint x="660" y="370" as="targetPoint"/>
                    </mxGeometry>
                </mxCell>
                <mxCell id="72" value="MultiNicNetwork Policy" style="rounded=0;whiteSpace=wrap;html=1;fontSize=14;" vertex="1" parent="1">
                    <mxGeometry x="320" y="160" width="120" height="40" as="geometry"/>
                </mxCell>
                <mxCell id="74" style="edgeStyle=none;html=1;exitX=0.5;exitY=1;exitDx=0;exitDy=0;" edge="1" parent="1" source="72" target="62">
                    <mxGeometry relative="1" as="geometry">
                        <mxPoint x="300" y="265.5" as="sourcePoint"/>
                        <mxPoint x="330" y="266" as="targetPoint"/>
                    </mxGeometry>
                </mxCell>
            </root>
        </mxGraphModel>
    </diagram>
</mxfile>